<svg xmlns="http://www.w3.org/2000/svg" viewBox="0 0 48 48"><defs><style>.cls-1{fill:#201602;}</style></defs><title>Asset 10ldpi</title><g id="Layer_2" data-name="Layer 2"><g id="layer_1-2" data-name="layer 1"><path class="cls-1" d="M37,48H1a1,1,0,0,1-1-1V1A1,1,0,0,1,1,0H47a1,1,0,0,1,1,1V37H46V2H2V46H37Z"/><rect class="cls-1" x="36" y="8" width="11" height="2"/><rect class="cls-1" x="1" y="8" width="13" height="2"/><rect class="cls-1" x="4" y="4" width="2" height="2"/><rect class="cls-1" x="8" y="4" width="2" height="2"/><rect class="cls-1" x="12" y="4" width="2" height="2"/><path class="cls-1" d="M42,48a1,1,0,0,1-.71-.29l-8-8,1.42-1.42L42,45.59,45.59,42l-7.3-7.29,1.42-1.42,8,8a1,1,0,0,1,0,1.42l-5,5A1,1,0,0,1,42,48Z"/><path class="cls-1" d="M25,42A17,17,0,1,1,42,25,17,17,0,0,1,25,42Zm0-32A15,15,0,1,0,40,25,15,15,0,0,0,25,10Z"/><path class="cls-1" d="M25,26a1,1,0,0,1-.37-.07A1,1,0,0,1,24,25V9h2V22.48l9.4-10,1.46,1.37L25.73,25.69A1,1,0,0,1,25,26Z"/><path class="cls-1" d="M18.22,39.39l-1.75-1,7.65-13.91A1,1,0,0,1,25.3,24l15.2,4.74-.59,1.91L25.48,26.2Z"/></g></g></svg>