<svg xmlns="http://www.w3.org/2000/svg" viewBox="0 0 48 48"><defs><style>.cls-1{fill:#201602;}</style></defs><title>Asset 19ldpi</title><g id="Layer_2" data-name="Layer 2"><g id="layer_1-2" data-name="layer 1"><path class="cls-1" d="M41,48a1,1,0,0,1-.51-.14L30.72,42H11V40H31a1,1,0,0,1,.51.14L40,45.23V41a1,1,0,0,1,1-1h5V8H41V6h6a1,1,0,0,1,1,1V41a1,1,0,0,1-1,1H42v5a1,1,0,0,1-.51.87A1,1,0,0,1,41,48Z"/><path class="cls-1" d="M7,40a1,1,0,0,1-.49-.13A1,1,0,0,1,6,39V34H1a1,1,0,0,1-1-1V1A1,1,0,0,1,1,0H38a1,1,0,0,1,1,1V33a1,1,0,0,1-1,1H17.28L7.51,39.86A1,1,0,0,1,7,40ZM2,32H7a1,1,0,0,1,1,1v4.23l8.49-5.09A1,1,0,0,1,17,32H37V2H2Z"/><path class="cls-1" d="M15,27a1,1,0,0,1-.45-.11A1,1,0,0,1,14,26V8a1,1,0,0,1,1.6-.8l12,9a1,1,0,0,1,0,1.6l-12,9A1,1,0,0,1,15,27Zm1-17V24l9.33-7Z"/></g></g></svg>