<svg xmlns="http://www.w3.org/2000/svg" viewBox="0 0 40 48"><defs><style>.cls-1{fill:#201602;}</style></defs><title>Asset 11ldpi</title><g id="Layer_2" data-name="Layer 2"><g id="layer_1-2" data-name="layer 1"><path class="cls-1" d="M20,37A13,13,0,1,1,33,24,13,13,0,0,1,20,37Zm0-24A11,11,0,1,0,31,24,11,11,0,0,0,20,13Z"/><path class="cls-1" d="M20,48a4,4,0,1,1,4-4A4,4,0,0,1,20,48Zm0-6a2,2,0,1,0,2,2A2,2,0,0,0,20,42Z"/><path class="cls-1" d="M20,8a4,4,0,1,1,4-4A4,4,0,0,1,20,8Zm0-6a2,2,0,1,0,2,2A2,2,0,0,0,20,2Z"/><path class="cls-1" d="M4,8A4,4,0,1,1,8,4,4,4,0,0,1,4,8ZM4,2A2,2,0,1,0,6,4,2,2,0,0,0,4,2Z"/><path class="cls-1" d="M36,8a4,4,0,1,1,4-4A4,4,0,0,1,36,8Zm0-6a2,2,0,1,0,2,2A2,2,0,0,0,36,2Z"/><path class="cls-1" d="M4,48a4,4,0,1,1,4-4A4,4,0,0,1,4,48Zm0-6a2,2,0,1,0,2,2A2,2,0,0,0,4,42Z"/><path class="cls-1" d="M36,48a4,4,0,1,1,4-4A4,4,0,0,1,36,48Zm0-6a2,2,0,1,0,2,2A2,2,0,0,0,36,42Z"/><path class="cls-1" d="M20,27c-2.76,0-5-2.69-5-6a4.68,4.68,0,0,1,5-5,4.68,4.68,0,0,1,5,5C25,24.31,22.76,27,20,27Zm0-9a2.72,2.72,0,0,0-3,3c0,2.21,1.35,4,3,4s3-1.79,3-4A2.72,2.72,0,0,0,20,18Z"/><path class="cls-1" d="M29,33H27V29.65a2,2,0,0,0-1.75-2L20,27l-5.25.65a2,2,0,0,0-1.75,2V33H11V29.65a4,4,0,0,1,3.5-4L19.88,25a1,1,0,0,1,.24,0l5.38.67a4,4,0,0,1,3.5,4Z"/><rect class="cls-1" x="19" y="28" width="2" height="2"/><rect class="cls-1" x="19" y="32" width="2" height="2"/><rect class="cls-1" x="19" y="36" width="2" height="5"/><rect class="cls-1" x="19" y="7" width="2" height="5"/><path class="cls-1" d="M37,41H35V32H30V30h6a1,1,0,0,1,1,1Z"/><path class="cls-1" d="M36,18H30V16h5V7h2V17A1,1,0,0,1,36,18Z"/><path class="cls-1" d="M10,18H4a1,1,0,0,1-1-1V7H5v9h5Z"/><path class="cls-1" d="M5,41H3V31a1,1,0,0,1,1-1h6v2H5Z"/></g></g></svg>