<svg xmlns="http://www.w3.org/2000/svg" viewBox="0 0 48 48"><defs><style>.cls-1{fill:#201602;}</style></defs><title>Asset 12ldpi</title><g id="Layer_2" data-name="Layer 2"><g id="layer_1-2" data-name="layer 1"><path class="cls-1" d="M37,48H1a1,1,0,0,1-1-1V1A1,1,0,0,1,1,0H47a1,1,0,0,1,1,1V37H46V2H2V46H37Z"/><rect class="cls-1" x="38" y="8" width="9" height="2"/><rect class="cls-1" x="1" y="8" width="11" height="2"/><rect class="cls-1" x="34" y="4" width="2" height="2"/><rect class="cls-1" x="38" y="4" width="2" height="2"/><rect class="cls-1" x="42" y="4" width="2" height="2"/><path class="cls-1" d="M42,48a1,1,0,0,1-.71-.29l-8-8,1.42-1.42L42,45.59,45.59,42l-7.3-7.29,1.42-1.42,8,8a1,1,0,0,1,0,1.42l-5,5A1,1,0,0,1,42,48Z"/><path class="cls-1" d="M25,43A18,18,0,1,1,43,25,18,18,0,0,1,25,43ZM25,9A16,16,0,1,0,41,25,16,16,0,0,0,25,9Z"/><path class="cls-1" d="M25,37A12,12,0,1,1,37,25,12,12,0,0,1,25,37Zm0-22A10,10,0,1,0,35,25,10,10,0,0,0,25,15Z"/><path class="cls-1" d="M25,32a4,4,0,0,1-4-4h2a2,2,0,1,0,2-2,4,4,0,1,1,4-4H27a2,2,0,1,0-2,2,4,4,0,0,1,0,8Z"/><rect class="cls-1" x="24" y="31" width="2" height="3"/><rect class="cls-1" x="24" y="16" width="2" height="3"/><rect class="cls-1" x="31" y="24" width="2" height="2"/><rect class="cls-1" x="17" y="24" width="2" height="2"/></g></g></svg>