<svg xmlns="http://www.w3.org/2000/svg" viewBox="0 0 46 48"><defs><style>.cls-1{fill:#201602;}</style></defs><title>Asset 14ldpi</title><g id="Layer_2" data-name="Layer 2"><g id="layer_1-2" data-name="layer 1"><path class="cls-1" d="M37,48H1a1,1,0,0,1-1-1V9A1,1,0,0,1,1,8H37a1,1,0,0,1,1,1v4H36V10H2V46H36V43h2v4A1,1,0,0,1,37,48Z"/><path class="cls-1" d="M38,9H36V2H2V9H0V1A1,1,0,0,1,1,0H37a1,1,0,0,1,1,1Z"/><rect class="cls-1" x="4" y="4" width="2" height="2"/><rect class="cls-1" x="8" y="4" width="2" height="2"/><rect class="cls-1" x="12" y="4" width="2" height="2"/><path class="cls-1" d="M32,42A14,14,0,1,1,46,28,14,14,0,0,1,32,42Zm0-26A12,12,0,1,0,44,28,12,12,0,0,0,32,16Z"/><path class="cls-1" d="M32,29a1,1,0,0,1-.37-.07A1,1,0,0,1,31,28V15h2V25.48l7.31-7.77,1.46,1.37-9,9.61A1,1,0,0,1,32,29Z"/><path class="cls-1" d="M26.66,39.79l-1.75-1,6.21-11.3A1,1,0,0,1,32.3,27l12.35,3.85-.59,1.91L32.48,29.2Z"/><rect class="cls-1" x="4" y="27" width="10" height="2"/><rect class="cls-1" x="4" y="32" width="7" height="2"/><rect class="cls-1" x="4" y="37" width="12" height="2"/><rect class="cls-1" x="4" y="17" width="16" height="2"/><rect class="cls-1" x="4" y="22" width="5" height="2"/></g></g></svg>