<svg xmlns="http://www.w3.org/2000/svg" viewBox="0 0 48 48"><defs><style>.cls-1{fill:#201602;}</style></defs><title>Asset 15ldpi</title><g id="Layer_2" data-name="Layer 2"><g id="layer_1-2" data-name="layer 1"><path class="cls-1" d="M39,48H1a1,1,0,0,1-1-1V9A1,1,0,0,1,1,8H38v2H2V46H39Z"/><path class="cls-1" d="M38,10H1A1,1,0,0,1,0,9V1A1,1,0,0,1,1,0H38a1,1,0,0,1,1,1V9A1,1,0,0,1,38,10ZM2,8H37V2H2Z"/><rect class="cls-1" x="4" y="4" width="2" height="2"/><rect class="cls-1" x="8" y="4" width="2" height="2"/><rect class="cls-1" x="12" y="4" width="2" height="2"/><path class="cls-1" d="M15,32c-2.76,0-5-2.69-5-6a4.68,4.68,0,0,1,5-5,4.68,4.68,0,0,1,5,5C20,29.31,17.76,32,15,32Zm0-9a2.72,2.72,0,0,0-3,3c0,2.21,1.35,4,3,4s3-1.79,3-4A2.72,2.72,0,0,0,15,23Z"/><rect class="cls-1" x="19" y="36" width="2" height="5"/><rect class="cls-1" x="9" y="36" width="2" height="6"/><path class="cls-1" d="M25,42H23V35.58a3,3,0,0,0-2.67-3L15,32l-5.33.59a3,3,0,0,0-2.67,3V42H5V35.58a5,5,0,0,1,4.45-5l5.44-.6a.81.81,0,0,1,.22,0l5.44.6a5,5,0,0,1,4.45,5Z"/><rect class="cls-1" x="19" y="36" width="2" height="6"/><path class="cls-1" d="M44,45a4,4,0,1,1,4-4A4,4,0,0,1,44,45Zm0-6a2,2,0,1,0,2,2A2,2,0,0,0,44,39Z"/><path class="cls-1" d="M44,32a4,4,0,1,1,4-4A4,4,0,0,1,44,32Zm0-6a2,2,0,1,0,2,2A2,2,0,0,0,44,26Z"/><path class="cls-1" d="M44,19a4,4,0,1,1,4-4A4,4,0,0,1,44,19Zm0-6a2,2,0,1,0,2,2A2,2,0,0,0,44,13Z"/><rect class="cls-1" x="22" y="27" width="17" height="2"/><rect class="cls-1" x="27" y="40" width="12" height="2"/><path class="cls-1" d="M16,19H14V15a1,1,0,0,1,1-1H39v2H16Z"/></g></g></svg>