<svg xmlns="http://www.w3.org/2000/svg" viewBox="0 0 48 48"><defs><style>.cls-1{fill:#201602;}</style></defs><title>Asset 16ldpi</title><g id="Layer_2" data-name="Layer 2"><g id="layer_1-2" data-name="layer 1"><path class="cls-1" d="M16,48H14V41H7a2,2,0,0,1-2-2V32.68L.63,30.93a1,1,0,0,1-.57-.59,1,1,0,0,1,.06-.82l4.93-9A9.56,9.56,0,0,0,6.11,17,19,19,0,0,1,28.93.4,18.61,18.61,0,0,1,39.31,6.35a18.92,18.92,0,0,1,2.81,4.22l-1.8.87A16.7,16.7,0,0,0,28.53,2.36,17,17,0,0,0,8.1,17.16a11.45,11.45,0,0,1-1.3,4.29l-4.38,8,3.32,1.33A2,2,0,0,1,7,32.68V39h7a2,2,0,0,1,2,2Z"/><path class="cls-1" d="M39,48H37V41.29a30.86,30.86,0,0,1,3-13.73l1.8.88A28.84,28.84,0,0,0,39,41.29Z"/><path class="cls-1" d="M19,35a1,1,0,0,1-.38-.07A1,1,0,0,1,18,34V11a1,1,0,0,1,1-1H47a1,1,0,0,1,1,1V28a1,1,0,0,1-1,1H25.41l-5.7,5.71A1,1,0,0,1,19,35Zm1-23V31.59l4.29-4.29A1,1,0,0,1,25,27H46V12Z"/><rect class="cls-1" x="36" y="16" width="7" height="2"/><rect class="cls-1" x="23" y="16" width="11" height="2"/><rect class="cls-1" x="31" y="21" width="9" height="2"/><rect class="cls-1" x="23" y="21" width="6" height="2"/></g></g></svg>