<svg xmlns="http://www.w3.org/2000/svg" viewBox="0 0 48 48"><defs><style>.cls-1{fill:#201602;}</style></defs><title>Asset 17ldpi</title><g id="Layer_2" data-name="Layer 2"><g id="layer_1-2" data-name="layer 1"><path class="cls-1" d="M33,48H15a1,1,0,0,1-1-1V41a1,1,0,0,1,1-1H33a1,1,0,0,1,1,1v6A1,1,0,0,1,33,48ZM16,46H32V42H16Z"/><path class="cls-1" d="M45,42H3a3,3,0,0,1-3-3V13a3,3,0,0,1,3-3H7v2H3a1,1,0,0,0-1,1V39a1,1,0,0,0,1,1H45a1,1,0,0,0,1-1V13a1,1,0,0,0-1-1H41V10h4a3,3,0,0,1,3,3V39A3,3,0,0,1,45,42Z"/><path class="cls-1" d="M40,39H38V2H17.41L10,9.41V39H8V9a1.05,1.05,0,0,1,.29-.71l8-8A1,1,0,0,1,17,0H39a1,1,0,0,1,1,1Z"/><rect class="cls-1" x="7" y="46" width="34" height="2"/><path class="cls-1" d="M17,10H9a1,1,0,0,1-.92-.62,1,1,0,0,1,.21-1.09l8-8A1,1,0,0,1,17.38.08,1,1,0,0,1,18,1V9A1,1,0,0,1,17,10ZM11.41,8H16V3.41Z"/><rect class="cls-1" x="29" y="8" width="5" height="2"/><rect class="cls-1" x="20" y="8" width="7" height="2"/><rect class="cls-1" x="24" y="13" width="10" height="2"/><rect class="cls-1" x="14" y="13" width="8" height="2"/><rect class="cls-1" x="14" y="18" width="15" height="2"/><rect class="cls-1" x="22" y="23" width="12" height="2"/><rect class="cls-1" x="14" y="23" width="6" height="2"/><rect class="cls-1" x="14" y="28" width="11" height="2"/></g></g></svg>