<svg xmlns="http://www.w3.org/2000/svg" viewBox="0 0 48 48"><defs><style>.cls-1{fill:#201602;}</style></defs><title>Asset 18ldpi</title><g id="Layer_2" data-name="Layer 2"><g id="layer_1-2" data-name="layer 1"><path class="cls-1" d="M31,48H3a3,3,0,0,1-3-3V3A3,3,0,0,1,3,0H31a3,3,0,0,1,3,3V45A3,3,0,0,1,31,48ZM3,2A1,1,0,0,0,2,3V45a1,1,0,0,0,1,1H31a1,1,0,0,0,1-1V3a1,1,0,0,0-1-1Z"/><path class="cls-1" d="M25,8H11A3,3,0,0,1,8,5V1A1,1,0,0,1,9,0H27a1,1,0,0,1,1,1V5A3,3,0,0,1,25,8ZM10,2V5a1,1,0,0,0,1,1H25a1,1,0,0,0,1-1V2Z"/><path class="cls-1" d="M46,8H40a1,1,0,0,1-1-1V3a3,3,0,0,1,3-3h2a3,3,0,0,1,3,3V7A1,1,0,0,1,46,8ZM41,6h4V3a1,1,0,0,0-1-1H42a1,1,0,0,0-1,1Z"/><path class="cls-1" d="M43,48a1,1,0,0,1-.91-.59l-4-9A1,1,0,0,1,39,37h8a1,1,0,0,1,.91,1.41l-4,9A1,1,0,0,1,43,48Zm-2.46-9L43,44.54,45.46,39Z"/><path class="cls-1" d="M47,39H39a1,1,0,0,1-1-1V7a1,1,0,0,1,1-1h8a1,1,0,0,1,1,1V38A1,1,0,0,1,47,39Zm-7-2h6V8H40Z"/><rect class="cls-1" x="39" y="27" width="8" height="2"/><rect class="cls-1" x="22" y="26" width="2" height="2"/><rect class="cls-1" x="10" y="26" width="2" height="2"/><rect class="cls-1" x="10" y="42" width="2" height="2"/><rect class="cls-1" x="10" y="10" width="2" height="2"/><rect class="cls-1" x="16" y="34" width="2" height="2"/><rect class="cls-1" x="16" y="18" width="2" height="2"/><path class="cls-1" d="M24,19a4,4,0,1,1,4-4A4,4,0,0,1,24,19Zm0-6a2,2,0,1,0,2,2A2,2,0,0,0,24,13Z"/><path class="cls-1" d="M24,43a4,4,0,1,1,4-4A4,4,0,0,1,24,43Zm0-6a2,2,0,1,0,2,2A2,2,0,0,0,24,37Z"/><path class="cls-1" d="M18,40H11a5,5,0,0,1,0-10H23a3,3,0,0,0,0-6H11a5,5,0,0,1,0-10h7v2H11a3,3,0,0,0,0,6H23a5,5,0,0,1,0,10H11a3,3,0,0,0,0,6h7Z"/></g></g></svg>