<svg xmlns="http://www.w3.org/2000/svg" width="128" height="128" version="1.0" viewBox="0 0 96 96"><defs><clipPath id="a"><path d="M18 9.84h60V69H18Zm0 0"/></clipPath><clipPath id="b"><path d="M1 64h94v22.34H1Zm0 0"/></clipPath></defs><g clip-path="url(#a)"><path fill="#fff" fill-rule="evenodd" d="M48 9.84c16.148 0 29.242 13.125 29.242 29.312 0 16.192-13.094 29.313-29.242 29.313-16.148 0-29.242-13.121-29.242-29.313C18.758 22.965 31.852 9.84 48 9.84Zm-9.016 37.097v-4.19l-2.886-.27v14.78h5.754v-.093h.003c0-.863-.12-1.758-1.316-1.758a.873.873 0 0 1-.871-.875v-1.18a3.03 3.03 0 0 1-.73-.769 2.698 2.698 0 0 1-.465-1.512c0-.343.07-.68.195-.996.039-.097.082-.191.129-.281a3.082 3.082 0 0 1-.129-.281 2.713 2.713 0 0 1-.195-1c0-.344.07-.68.195-.996.082-.203.187-.399.316-.582ZM68.297 33.61c0-.816-.383-1.558-.996-2.097a3.738 3.738 0 0 0-1.684-.832v5.855a3.738 3.738 0 0 0 1.684-.832c.613-.539.996-1.281.996-2.094Zm-4.422-3.894v-8.11c-3.977 2-7.445 3.497-10.777 4.614a54.322 54.322 0 0 1-10.313 2.379v11.527a54.633 54.633 0 0 1 10.313 2.383c3.332 1.117 6.8 2.613 10.777 4.613ZM41.039 41.188V27.538l-6.77.629v.852c.004.02.004.035.004.054 0 .031 0 .059-.003.086v10.406a.633.633 0 0 1 .003.086c0 .02 0 .04-.003.055v.852l.988.09c.035.003.066.003.097.011l4.516.418c.043 0 .09.008.133.012Zm-8.512-2.43v-8.79l-1.847.02c-.938 0-1.797.469-2.43 1.227-.672.805-1.09 1.918-1.09 3.148h.004c0 1.235.418 2.348 1.086 3.149.633.758 1.492 1.226 2.43 1.226v.004Zm0 0"/></g><path fill="#fff" fill-rule="evenodd" d="M17.445 44.332.04 31.117v54.34l28.816-21.879c-5.925-4.676-10.109-11.473-11.41-19.246Zm0 0"/><g clip-path="url(#b)"><path fill="#fff" fill-rule="evenodd" d="M30.316 64.66 1.758 86.34h92.484L65.684 64.66A30.793 30.793 0 0 1 48 70.215a30.793 30.793 0 0 1-17.684-5.555Zm0 0"/></g><path fill="#fff" fill-rule="evenodd" d="M95.96 85.457v-54.34l-17.41 13.23a31.055 31.055 0 0 1-11.405 19.231ZM94.242 30.234H77.687a31.101 31.101 0 0 1 1.172 11.688ZM18.313 30.234H1.758l15.379 11.672a32.044 32.044 0 0 1-.121-2.754c0-3.101.453-6.093 1.297-8.918Zm0 0"/></svg>