<svg xmlns="http://www.w3.org/2000/svg" width="128" height="128" version="1.0" viewBox="0 0 96 96"><defs><clipPath id="a"><path d="M0 3.54h54V58H0Zm0 0"/></clipPath><clipPath id="b"><path d="M46.313 50.254h42.386v42.305H46.313Zm0 0"/></clipPath><clipPath id="c"><path d="M81.637 33H96v17H81.637Zm0 0"/></clipPath></defs><g clip-path="url(#a)"><path fill="#fff" d="M29.395 10.41c-.72-.46-.297-1.582.546-1.45 9.278 1.45 16.602 8.802 18.047 18.114.133.856-.984 1.274-1.445.551-4.477-6.977-10.203-12.71-17.148-17.215Zm5.062 29.414a9.124 9.124 0 0 1-2.969 3.473 9.082 9.082 0 0 1-2.406 1.183v.262a2.64 2.64 0 0 1-2.629 2.64c-1.441 0-2.617-1.19-2.617-2.64v-.262a8.875 8.875 0 0 1-2.242-1.058 8.854 8.854 0 0 1-3.024-3.352c-.636-1.238-1.175-2.648-.238-3.91a2.629 2.629 0 0 1 2.11-1.058c1.14 0 2.195.77 2.519 1.859.457 1.527 1.871 2.64 3.492 2.64 2.05 0 3.75-1.777 3.645-3.835a3.657 3.657 0 0 0-1.63-2.825c-1.468-.984-3.464-.59-5.073-1.254-2.993-1.242-5.043-4.265-5.043-7.53 0-2.571 1.25-5.04 3.308-6.56a8.196 8.196 0 0 1 2.176-1.14v-.305a2.63 2.63 0 0 1 2.617-2.632 2.633 2.633 0 0 1 2.629 2.632v.313a8.118 8.118 0 0 1 5.055 5.094c0 .02.004.035.004.046 0 .52.191.95.035 1.493a2.68 2.68 0 0 1-1.946 1.836c-1.273.32-2.68-.41-3.074-1.692a2.94 2.94 0 0 0-.433-.828 2.857 2.857 0 0 0-2.27-1.125c-1.652 0-2.992 1.488-2.836 3.129.121 1.285 1.168 2.34 2.492 2.543 1.7 0 3.45.441 4.91 1.336a9.02 9.02 0 0 1 3.68 4.3 9.012 9.012 0 0 1 .64 3.348 9.11 9.11 0 0 1-.882 3.88Zm16.484 1.317a26.684 26.684 0 0 0 2.223-10.696c0-14.734-11.902-26.68-26.582-26.68C11.898 3.766 0 15.712 0 30.446c0 14.739 11.898 26.688 26.582 26.688 3.785 0 7.39-.797 10.652-2.23a11.777 11.777 0 0 1 3.262-10.489 11.698 11.698 0 0 1 10.445-3.273"/></g><g clip-path="url(#b)"><path fill="#fff" d="m75.191 72.004 10.004-5.938c1.778-1.058 1.477-3.726-.492-4.355L49.555 50.496c-1.848-.586-3.59 1.16-3.004 3.012l11.176 35.285c.625 1.977 3.28 2.281 4.332.496l5.918-10.043L79.75 91.06c1.992 2 5.219 2 7.21 0a5.13 5.13 0 0 0 0-7.239L75.192 72.004"/></g><path fill="#fff" d="M74.887 44.363a2.453 2.453 0 0 0 3.11-1.523l4.796-13.934a2.46 2.46 0 0 0-1.527-3.133 2.445 2.445 0 0 0-3.106 1.524l-4.8 13.933a2.464 2.464 0 0 0 1.527 3.133M65.492 43.45a2.455 2.455 0 0 0 2.403-2.481l-.09-13.489a2.457 2.457 0 0 0-2.5-2.449 2.455 2.455 0 0 0-2.403 2.48l.086 13.493a2.464 2.464 0 0 0 2.504 2.445"/><g clip-path="url(#c)"><path fill="#fff" d="M95.102 34.234a2.446 2.446 0 0 0-3.442.371l-9.14 11.333a2.463 2.463 0 0 0 .367 3.464 2.441 2.441 0 0 0 3.441-.363l9.14-11.336a2.468 2.468 0 0 0-.366-3.469"/></g></svg>