<svg xmlns="http://www.w3.org/2000/svg" width="128" height="128" version="1.0" viewBox="0 0 96 96"><path fill="#fff" fill-rule="evenodd" d="M73.36 12.098a1.939 1.939 0 0 1 .227-3.871l12.167.753a1.94 1.94 0 0 1 1.8 2.254l-2.034 12.02a1.937 1.937 0 0 1-2.23 1.594 1.937 1.937 0 0 1-1.595-2.23l1.235-7.31L57.094 33.52c-.653.457-1.551.48-2.239-.008l-13.539-9.61L22.97 38.5a1.938 1.938 0 0 1-2.723-.313 1.937 1.937 0 0 1 .309-2.722l19.488-15.508a1.936 1.936 0 0 1 2.398-.008l13.543 9.61 24.172-17.04ZM32.68 0C14.633 0 0 14.633 0 32.68c0 18.05 14.633 32.68 32.68 32.68a32.54 32.54 0 0 0 19.652-6.567l7.836 7.832c-.926 1.602-.707 3.7.66 5.066l22.68 22.68a4.204 4.204 0 0 0 5.926 0l4.937-4.937a4.204 4.204 0 0 0 0-5.926l-22.68-22.68c-1.367-1.367-3.464-1.586-5.066-.66l-7.832-7.836a32.54 32.54 0 0 0 6.566-19.652v-.23c-3.367 2.37-6.73 4.741-10.093 7.116C52.32 49.242 43.324 56.29 32.68 56.29c-13.035 0-23.606-10.57-23.606-23.61 0-13.034 10.57-23.605 23.606-23.605 9.886 0 18.351 6.078 21.867 14.703l1.445 1.024 6.813-4.805C57.855 8.246 46.23 0 32.68 0Zm0 0"/></svg>