<svg xmlns="http://www.w3.org/2000/svg" width="128" height="128" version="1.0" viewBox="0 0 96 96"><defs><clipPath id="a"><path d="M29 3.09h67V91H29Zm0 0"/></clipPath></defs><path fill="#fff" d="M26.938 63.313c.273 2.218.699 4.566 1.207 6.906h3.73l-2.746-6.906ZM26.54 72.238c-.083-.336-.153-.668-.227-1.004-.07-.34-.145-.668-.215-1.007a93.474 93.474 0 0 1-.79-4.188 56.039 56.039 0 0 1-.382-2.719H14.523c-.8 0-1.585-.054-2.359-.168.113.5.234 1.07.363 1.711.496 2.414 1.02 5.219 1.371 7.078.153.82.274 1.465.32 1.68.395 1.906.774 3.844 1.141 5.727.434 2.21.875 4.504 1.348 6.738.129.613.41 1.39.844 2.34 1.453 3.199 5.265 4.664 8.496 3.265a6.512 6.512 0 0 0 3.637-7.921c-1.036-3.329-2.2-7.391-3.145-11.532Zm0 0"/><g clip-path="url(#a)"><path fill="#fff" d="M89.684 12.242c-3.668-7.566-7.68-9.152-10.399-9.152-1.293 0-2.578.355-3.805 1.055-2.168 1.23-4.156 3.511-5.93 6.785a38.246 38.246 0 0 0-1.94 4.246.983.983 0 0 1-.364.46c-9.05 6.368-19.273 10.669-28.984 14.368a466.47 466.47 0 0 1-5.86 2.187c-.007 0-.015.008-.023.008a.07.07 0 0 1-.04.008c-.015.008-.03.008-.054.016-.02 0-.027.011-.043.011-.015 0-.039.008-.054.008-.008 0-.024 0-.032.008-.031 0-.066.008-.097.008-.016.008-.055.023-.13.078-.03.035-.077.074-.128.129-.016.015-.031.043-.047.058-.016.016-.031.04-.055.07-.043.052-.082.106-.12.169-.009.02-.024.035-.032.05-.008.016-.027.04-.035.055-.176.29-.383.715-.617 1.336-.04.106-.07.207-.114.313-.55 1.632-.968 3.836-1.226 6.363 0 .016 0 .039-.008.055-.016.12-.024.25-.031.37l-.024.313c0 .04-.008.082-.008.121-.027.305-.05.61-.074.914a72.87 72.87 0 0 0-.105 2.133c-.008.16-.008.32-.016.492v.094c-.008.281-.008.555-.016.836v.582c0 5.09.61 9.793 1.63 12.582.167.469.327.82.484 1.094.039.066.07.129.101.187.024.04.051.078.075.11.16.25.289.386.375.468.015.016.03.024.05.04.04.023.063.039.07.039h.008a.28.28 0 0 1 .098.011h.023c.024 0 .047.008.07.016h.02c.047.008.086.023.125.039 1.75.645 3.813 1.406 5.86 2.188 9.703 3.699 19.933 8 28.984 14.37.16.11.29.274.363.458a37.921 37.921 0 0 0 1.942 4.246c1.773 3.273 3.761 5.554 5.93 6.785 1.148.652 2.343 1.008 3.546 1.055h.258c2.719 0 6.73-1.582 10.399-9.153 1.918-3.965 3.507-9.148 4.59-14.996 1.124-6.086 1.703-12.656 1.703-19.531 0-6.875-.57-13.453-1.704-19.535-1.074-5.867-2.664-11.055-4.59-15.02Zm-3.57 67.332c-2.126 4.39-4.614 6.906-6.829 6.906h-.12c-.571-.023-1.134-.19-1.72-.53-1.484-.845-3.007-2.653-4.394-5.22-3.082-5.69-5.219-14.37-6.067-24.222l10.801-2.485a4.091 4.091 0 0 1-.754-1.02c-.781-1.448-1.23-3.714-1.23-6.222 0-2.511.449-4.777 1.23-6.226.223-.418.473-.754.754-1.02l-10.8-2.484c.847-9.852 2.992-18.528 6.066-24.223 1.386-2.574 2.91-4.375 4.394-5.226.637-.364 1.239-.532 1.848-.532 2.207 0 4.703 2.516 6.828 6.918 3.692 7.614 5.89 19.867 5.89 32.801-.007 12.914-2.206 25.176-5.898 32.785Zm0 0"/></g><path fill="#fff" d="M7.77 33.93C3.172 36.367.023 41.215.023 46.78c0 5.563 3.137 10.403 7.739 12.848a39.661 39.661 0 0 1-2.114-11.875A40.36 40.36 0 0 1 7.77 33.93Zm0 0"/><path fill="#fff" d="M24.3 61.3h5.255c-.024-.046-.047-.093-.07-.144 0-.008-.008-.015-.008-.023-.028-.047-.051-.106-.075-.16l-.023-.047-.074-.164c-.008-.008-.008-.024-.016-.032-.023-.062-.055-.128-.078-.19a.11.11 0 0 1-.016-.052 6.699 6.699 0 0 1-.066-.16l-.024-.055c-.023-.074-.054-.144-.078-.218-1.093-3-1.75-7.961-1.75-13.274 0-4.82.535-9.347 1.453-12.386a15.7 15.7 0 0 1 .192-.602c.031-.098.062-.195.105-.29v-.007c.024-.074.047-.137.078-.21.008-.016.016-.04.024-.056.023-.058.043-.113.066-.167.008-.02.008-.036.016-.043.023-.063.055-.137.086-.2 0-.008.008-.015.008-.023.027-.059.05-.113.074-.172l.023-.047c.024-.055.055-.113.082-.168 0-.008 0-.008.008-.015.024-.051.047-.106.07-.153H14.524c-1.476 0-2.894.223-4.234.633-1.84 4.688-2.754 9.805-2.625 14.813a37.716 37.716 0 0 0 2.305 12.12c.101.282.207.57.32.852.063.016.121.04.184.055 1.285.379 2.648.578 4.058.578h9.77ZM79.285 40.895c-.058.03-.25.167-.5.617-.61 1.125-.984 3.144-.984 5.27 0 2.12.375 4.14.984 5.265.25.457.434.586.492.617h.008c.086-.039.313-.238.578-.785.57-1.168.907-3.074.907-5.098 0-2.027-.336-3.933-.907-5.101-.258-.547-.492-.746-.578-.785Zm0 0"/></svg>