<svg xmlns="http://www.w3.org/2000/svg" width="128" height="128" version="1.0" viewBox="0 0 96 96"><defs><clipPath id="a"><path d="M0 4.2h96v87.75H0Zm0 0"/></clipPath></defs><g clip-path="url(#a)"><path fill="#fff" d="M93.883 4.2H2.117A2.089 2.089 0 0 0 .031 6.29v66.855c0 1.156.934 2.09 2.086 2.09h43.797V87.77h-18.77a2.089 2.089 0 0 0-2.085 2.09c0 1.156.933 2.09 2.086 2.09h41.71a2.084 2.084 0 0 0 2.086-2.09c0-1.153-.93-2.09-2.086-2.09h-18.77V75.234h43.798a2.084 2.084 0 0 0 2.086-2.09V6.29c0-1.152-.93-2.09-2.086-2.09Zm-52.75 42.398a2.087 2.087 0 0 1 0 2.953 2.07 2.07 0 0 1-1.477.613 2.067 2.067 0 0 1-1.472-.613l-8.344-8.356a2.087 2.087 0 0 1 0-2.953l8.344-8.36a2.087 2.087 0 1 1 2.95 2.953l-6.868 6.884Zm25.027-5.403-8.344 8.356c-.406.41-.941.613-1.472.613a2.07 2.07 0 0 1-1.477-.613 2.087 2.087 0 0 1 0-2.953l6.867-6.88-6.867-6.882a2.087 2.087 0 1 1 2.95-2.953l8.343 8.36a2.087 2.087 0 0 1 0 2.952Zm0 0"/></g></svg>