<svg xmlns="http://www.w3.org/2000/svg" width="128" height="128" version="1.0" viewBox="0 0 96 96"><defs><clipPath id="a"><path d="M30.398 19.555h59.72v76.441h-59.72Zm0 0"/></clipPath></defs><g clip-path="url(#a)"><path fill="#fff" d="M89.379 41.719c-.11-.532-.219-1.063-.332-1.594l-.402-1.57c-.063-.262-.145-.52-.227-.782L88.18 37l-.121-.387c-.04-.129-.075-.258-.125-.383l-.278-.761c-.183-.504-.36-1.016-.578-1.508l-.312-.746-.157-.371-.078-.184-.086-.183-.699-1.454a3.872 3.872 0 0 0-.086-.183l-.097-.176-.192-.355-.383-.707c-.246-.477-.531-.93-.808-1.387l-.418-.688c-.067-.117-.145-.226-.219-.336l-.227-.332-.449-.664-.222-.332c-.04-.054-.075-.113-.114-.164l-.12-.164-.966-1.277a44.332 44.332 0 0 0-4.32-4.692 44.532 44.532 0 0 1 3.945 4.965l.86 1.328.105.164c.035.055.067.114.098.172l.199.34.395.684.195.34c.066.113.133.226.191.347l.36.7c.238.468.484.93.691 1.414l.324.714.16.36.082.18c.024.058.047.12.07.18l.575 1.46.07.184.063.183.375 1.114c.18.492.312.996.453 1.496l.215.754c.039.125.062.25.094.378l.085.38.176.761c.059.25.121.504.164.762l.278 1.531L87.55 42c.234 2.055.312 4.125.234 6.184l-.094 1.539-.011.191-.024.195-.039.383-.086.766c-.043.512-.14 1.015-.215 1.523l-.12.758c-.048.25-.106.5-.157.754l-.156.75-.074.375-.098.371-.387 1.484-.453 1.461c-.039.121-.074.243-.117.364l-.133.359-.262.715c-.09.238-.168.48-.265.715l-.297.703c-.2.469-.383.941-.613 1.394l-.332.684-.165.344c-.054.113-.109.226-.171.336l-.727 1.336c-3.988 7.043-10.246 12.683-17.465 15.906a37.492 37.492 0 0 1-5.566 1.988 38.63 38.63 0 0 1-2.875.649c-.48.097-.965.168-1.45.242-.242.039-.484.066-.726.097-.246.032-.484.067-.73.086l-.73.07c-.243.024-.49.036-.731.055-.485.04-.977.047-1.461.07-.977.016-1.95.02-2.922-.038l-.363-.016c-.122-.008-.243-.02-.364-.027l-.726-.059-.723-.074-.363-.04-.36-.046-.007-.004 1.296-4.27-16.039 3.743 11.266 11.98 1.352-4.445.617.054 1.3.082.434.016.863.027.868.004h.433l.434-.011a44.165 44.165 0 0 0 3.449-.207c.57-.067 1.145-.121 1.71-.207.286-.043.571-.079.852-.125l.852-.145c.281-.047.563-.105.844-.164.281-.059.562-.11.84-.176.558-.129 1.117-.25 1.672-.402 1.109-.285 2.199-.629 3.277-1a42.64 42.64 0 0 0 6.246-2.754c8.012-4.309 14.473-11.14 18.281-19.164 3.817-8.016 4.961-17.145 3.305-25.66"/></g><path fill="#fff" d="M42.938 11.434a36.945 36.945 0 0 1 8.714.046l-1.261 4.282 16.007-3.864L55.04.004 53.727 4.46a44.243 44.243 0 0 0-11.766.594c-4.5.847-8.844 2.383-12.816 4.562a42.647 42.647 0 0 0-5.665 3.703c-.222.168-.44.348-.66.524-.218.18-.437.351-.652.535l-.637.547c-.11.094-.215.183-.32.277l-.309.285-.62.567-.602.586c-.407.386-.785.797-1.176 1.195a47.287 47.287 0 0 0-4.192 5.207 44.007 44.007 0 0 0-3.296 5.773C7.242 36.82 6.117 45.922 7.793 54.41c.398 2.125.996 4.207 1.727 6.227.738 2.02 1.613 3.984 2.668 5.847.246.473.535.922.808 1.383l.418.684c.066.113.145.222.219.336l.222.328.45.664c.152.219.297.445.46.652l.962 1.278a44.836 44.836 0 0 0 4.308 4.675 44.259 44.259 0 0 1-3.933-4.949l-.856-1.324c-.148-.215-.273-.45-.406-.676l-.586-1.02c-.066-.113-.137-.226-.191-.343l-.36-.7c-.234-.468-.488-.925-.691-1.406-.895-1.89-1.602-3.859-2.172-5.855-.563-1.996-.992-4.031-1.219-6.086a41.2 41.2 0 0 1-.25-6.164c.086-2.055.336-4.09.727-6.094l.16-.75c.05-.246.094-.5.164-.746l.383-1.476c.3-.973.586-1.95.953-2.895l.262-.715c.097-.234.199-.469.296-.7l.293-.698.149-.352.164-.344.656-1.363.727-1.332c1-1.75 2.12-3.426 3.363-5a42.315 42.315 0 0 1 4.094-4.39c2.949-2.696 6.289-4.922 9.883-6.551a37.121 37.121 0 0 1 11.293-3.121"/><path fill="#fff" d="M41.637 42.336c.05 3.668 3.164 6.77 6.843 6.82 3.903.055 7.09-3.125 7.036-7.015-.047-3.668-3.16-6.774-6.84-6.825-3.906-.05-7.09 3.125-7.04 7.02M60.086 43.512c.082 2.562 2.305 4.781 4.875 4.863 2.918.094 5.309-2.29 5.215-5.195-.086-2.563-2.309-4.782-4.88-4.864-2.913-.093-5.304 2.29-5.21 5.196M32.191 38.316c-2.914-.093-5.304 2.29-5.21 5.196.085 2.562 2.308 4.781 4.878 4.863 2.914.094 5.305-2.29 5.211-5.195-.086-2.563-2.308-4.782-4.879-4.864"/><path fill="#fff" d="M35.973 56.758c-.262.762-.457 1.61-.547 2.554a1.247 1.247 0 0 0 1.246 1.368H60.48c.739 0 1.32-.633 1.25-1.367a11.244 11.244 0 0 0-.546-2.555h12.214c.77 0 1.352-.684 1.243-1.442-.664-4.468-4.399-5.765-6.325-6.14a4.086 4.086 0 0 0-1.976.113c-.79.25-1.633.25-2.422 0-.64-.2-1.32-.238-1.977-.113-1.28.25-3.363.91-4.808 2.64-1.496-.898-3.055-1.34-4.172-1.558a5.533 5.533 0 0 0-2.719.156 5.572 5.572 0 0 1-3.332 0 5.53 5.53 0 0 0-2.719-.156c-1.113.219-2.671.66-4.168 1.558-1.445-1.73-3.527-2.39-4.808-2.64a4.1 4.1 0 0 0-1.98.113c-.786.25-1.633.25-2.422 0a4.08 4.08 0 0 0-1.977-.113c-1.922.375-5.656 1.672-6.32 6.14a1.255 1.255 0 0 0 1.242 1.442h12.215"/></svg>